<?xml version="1.0" encoding="utf-8"?>
<!-- Generator: Adobe Illustrator 19.2.1, SVG Export Plug-In . SVG Version: 6.00 Build 0)  -->
<svg version="1.1" id="layer" xmlns="http://www.w3.org/2000/svg" xmlns:xlink="http://www.w3.org/1999/xlink" x="0px" y="0px"
	 viewBox="0 0 652 652" style="enable-background:new 0 0 652 652;" xml:space="preserve">
<style type="text/css">
	.st0{fill:#0F238C;}
</style>
<g>
	<path class="st0" d="M425.6,399l21-98.4l8,98.4h45.3l-21-156.3h-48.5l-22.6,93.7l-22.6-93.7h-48.5l-21,156.3H361l8.1-98.4l21,98.4
		L425.6,399z M521,242.8V399h100v-32.8h-57.8V242.8H521z M69.7,242.8L21,399h48.7l6.5-28.1h42.2l6.5,28.1h48.7l-48.7-156.3H69.7z
		 M97.3,277.2l14.6,64.1H82.7C82.7,341.2,97.3,277.2,97.3,277.2z M286.5,286.9C246.1,252.5,183,266.5,182.4,298
		c-9.2-58.5,63.4-70.8,104.1-52.3C287.2,255.1,287.9,265.2,286.5,286.9z M253,305.6c16.7,6.3,46.5,14.4,46.5,47.9
		c0,20.6-20.4,40-44,47.1c-29.2,8.8-58.4,0.1-76.3-7.4v-38c15.1,10.5,28.4,16.1,44.9,16.4c9.9,0.2,25-4.6,25-18
		c0-11.5-10.9-15-17.2-18.4c-36-19.2-25.1-57.7,7.4-60.9c-9.4,3.1-11.4,8.1-11.4,12.7C228,298.2,242.8,301.7,253,305.6z"/>
</g>
</svg>
