<?xml version="1.0" encoding="utf-8"?>
<!-- Generator: Adobe Illustrator 23.0.0, SVG Export Plug-In . SVG Version: 6.00 Build 0)  -->
<svg version="1.1" id="Layer_1" xmlns="http://www.w3.org/2000/svg" xmlns:xlink="http://www.w3.org/1999/xlink" x="0px" y="0px"
	 viewBox="0 0 815 360" style="enable-background:new 0 0 815 360;" xml:space="preserve">
<style type="text/css">
	.st0{fill:#2382DF;}
	.st1{fill:#FFFFFF;}
	.st2{fill:#184A7B;}
	.st3{fill:#6C88A3;}
</style>
<rect class="st1" width="815" height="360"/>
<path class="st2" d="M310.7,129.8h13.1v49.7h25.9V191h-39V129.8z"/>
<path class="st2" d="M364.2,129.8h43.4V141h-30.3v13.3H407v11.2h-29.7v14.2h30.3V191h-43.4V129.8z"/>
<path class="st2" d="M419.4,129.8h14.9l17,47.1l16.9-47.1h14.9L459.5,191h-16.4L419.4,129.8z"/>
<path class="st2" d="M530.1,180.5h-27.4l-3.9,10.6h-14.3l23.7-61.2h16.4l23.6,61.2H534L530.1,180.5z M506.2,169.2h20.3l-10.1-28.1
	L506.2,169.2z"/>
<path class="st2" d="M583.5,169.1H574V191h-13.1v-61.2h28.7c12.8,0,20.6,8.4,20.6,19.7c0,10.8-6.8,16.6-13.4,18.2l13.8,23.3h-15
	L583.5,169.1z M587.6,141H574v16.9h13.7c5.2,0,9.2-3.3,9.2-8.4S592.9,141,587.6,141z"/>
<path class="st2" d="M640.6,149.9V191h-13.1v-61.2H641l28.4,39.7v-39.7h13.1V191h-12.6L640.6,149.9z"/>
<path class="st2" d="M700.1,129.8h43.4V141h-30.3v13.3h29.7v11.2h-29.7v14.2h30.3V191h-43.4V129.8z"/>
<path class="st3" d="M313.7,228.8c2,2,5,3.7,8.8,3.7c3.2,0,4.8-1.5,4.8-3.1c0-2.1-2.4-2.8-5.6-3.5c-4.5-1-10.3-2.3-10.3-8.5
	c0-4.6,4-8.3,10.5-8.3c4.4,0,8.1,1.3,10.8,3.9l-3.3,4.3c-2.2-2.1-5.2-3-7.9-3c-2.7,0-4.1,1.2-4.1,2.8c0,1.9,2.3,2.4,5.5,3.2
	c4.6,1,10.4,2.4,10.4,8.5c0,5.1-3.6,8.9-11.1,8.9c-5.3,0-9.1-1.8-11.7-4.4L313.7,228.8z"/>
<path class="st3" d="M349.2,216.7c6,0,10.1,4.5,10.1,11v1.2h-14.9c0.3,2.5,2.4,4.6,5.8,4.6c1.9,0,4.1-0.7,5.4-2l2.3,3.4
	c-2,1.8-5.1,2.8-8.3,2.8c-6.1,0-10.7-4.1-10.7-10.5C338.8,221.4,343.1,216.7,349.2,216.7z M344.2,225.3h9.9
	c-0.1-1.9-1.5-4.4-4.9-4.4C345.9,220.9,344.5,223.3,344.2,225.3z"/>
<path class="st3" d="M365.6,217.2h5.3v2.7c1.4-1.8,3.9-3.2,6.4-3.2v5.1c-0.4-0.1-0.9-0.2-1.5-0.2c-1.7,0-4.1,1-4.9,2.3v13.2h-5.3
	V217.2z"/>
<path class="st3" d="M382.2,217.2h5.6l5.2,13.9l5.2-13.9h5.7l-8.1,20h-5.7L382.2,217.2z"/>
<path class="st3" d="M418.1,216.7c6,0,10.1,4.5,10.1,11v1.2h-14.9c0.3,2.5,2.4,4.6,5.8,4.6c1.9,0,4.1-0.7,5.4-2l2.3,3.4
	c-2,1.8-5.1,2.8-8.3,2.8c-6.1,0-10.7-4.1-10.7-10.5C407.7,221.4,411.9,216.7,418.1,216.7z M413.1,225.3h9.9
	c-0.1-1.9-1.5-4.4-4.9-4.4C414.8,220.9,413.4,223.3,413.1,225.3z"/>
<path class="st3" d="M434.5,217.2h5.3v2.7c1.4-1.8,3.9-3.2,6.4-3.2v5.1c-0.4-0.1-0.9-0.2-1.5-0.2c-1.7,0-4.1,1-4.9,2.3v13.2h-5.3
	V217.2z"/>
<path class="st3" d="M452.4,209.6h5.3v27.7h-5.3V209.6z"/>
<path class="st3" d="M475,216.7c6,0,10.1,4.5,10.1,11v1.2h-14.9c0.3,2.5,2.4,4.6,5.8,4.6c1.9,0,4.1-0.7,5.4-2l2.3,3.4
	c-2,1.8-5.1,2.8-8.3,2.8c-6.1,0-10.7-4.1-10.7-10.5C464.6,221.4,468.8,216.7,475,216.7z M470,225.3h9.9c-0.1-1.9-1.5-4.4-4.9-4.4
	C471.7,220.9,470.3,223.3,470,225.3z"/>
<path class="st3" d="M492.3,230.9c1.5,1.4,4.4,2.7,6.9,2.7c2.3,0,3.4-0.8,3.4-2c0-1.4-1.7-1.9-4-2.4c-3.4-0.7-7.9-1.5-7.9-6.3
	c0-3.4,2.9-6.3,8.2-6.3c3.4,0,6.1,1.2,8.1,2.7l-2.1,3.6c-1.2-1.3-3.5-2.3-5.9-2.3c-1.9,0-3.2,0.7-3.2,1.9c0,1.2,1.6,1.7,3.8,2.2
	c3.4,0.7,8.1,1.6,8.1,6.6c0,3.6-3.1,6.4-8.7,6.4c-3.5,0-6.9-1.2-9-3.1L492.3,230.9z"/>
<path class="st3" d="M514.3,230.9c1.5,1.4,4.4,2.7,6.9,2.7c2.3,0,3.4-0.8,3.4-2c0-1.4-1.7-1.9-4-2.4c-3.4-0.7-7.9-1.5-7.9-6.3
	c0-3.4,2.9-6.3,8.2-6.3c3.4,0,6.1,1.2,8.1,2.7l-2.1,3.6c-1.2-1.3-3.5-2.3-5.9-2.3c-1.9,0-3.2,0.7-3.2,1.9c0,1.2,1.6,1.7,3.8,2.2
	c3.4,0.7,8.1,1.6,8.1,6.6c0,3.6-3.1,6.4-8.7,6.4c-3.5,0-6.9-1.2-9-3.1L514.3,230.9z"/>
<path class="st3" d="M553.9,228.8c2,2,5,3.7,8.8,3.7c3.2,0,4.8-1.5,4.8-3.1c0-2.1-2.4-2.8-5.6-3.5c-4.5-1-10.3-2.3-10.3-8.5
	c0-4.6,4-8.3,10.5-8.3c4.4,0,8.1,1.3,10.8,3.9l-3.3,4.3c-2.2-2.1-5.2-3-7.9-3c-2.7,0-4.1,1.2-4.1,2.8c0,1.9,2.3,2.4,5.5,3.2
	c4.6,1,10.4,2.4,10.4,8.5c0,5.1-3.6,8.9-11.1,8.9c-5.3,0-9.1-1.8-11.7-4.4L553.9,228.8z"/>
<path class="st3" d="M578.3,227.2c0-5.7,4-10.5,10.6-10.5c6.6,0,10.6,4.8,10.6,10.5c0,5.7-4,10.5-10.6,10.5
	C582.3,237.7,578.3,232.9,578.3,227.2z M594,227.2c0-3.1-1.9-5.8-5.1-5.8c-3.3,0-5.1,2.7-5.1,5.8c0,3.2,1.8,5.8,5.1,5.8
	C592.1,233,594,230.3,594,227.2z"/>
<path class="st3" d="M605.2,209.6h5.3v27.7h-5.3V209.6z"/>
<path class="st3" d="M631.8,234.7c-1.4,1.5-3.8,3-7.1,3c-4.4,0-6.5-2.4-6.5-6.3v-14.2h5.3v12.2c0,2.8,1.5,3.7,3.7,3.7
	c2,0,3.7-1.1,4.6-2.3v-13.6h5.3v20h-5.3V234.7z"/>
<path class="st3" d="M646.7,232.2v-10.5h-3.3v-4.6h3.3v-5.5h5.3v5.5h4.1v4.6H652v9c0,1.2,0.7,2.2,1.8,2.2c0.8,0,1.5-0.3,1.8-0.6
	l1.1,4c-0.8,0.7-2.2,1.3-4.4,1.3C648.7,237.7,646.7,235.8,646.7,232.2z"/>
<path class="st3" d="M662.9,211.5c0-1.7,1.5-3.2,3.2-3.2c1.7,0,3.2,1.4,3.2,3.2c0,1.7-1.4,3.2-3.2,3.2
	C664.3,214.6,662.9,213.2,662.9,211.5z M663.4,217.2h5.3v20h-5.3V217.2z"/>
<path class="st3" d="M675.2,227.2c0-5.7,4-10.5,10.6-10.5c6.6,0,10.6,4.8,10.6,10.5c0,5.7-4,10.5-10.6,10.5
	C679.2,237.7,675.2,232.9,675.2,227.2z M690.9,227.2c0-3.1-1.9-5.8-5.1-5.8s-5.1,2.7-5.1,5.8c0,3.2,1.8,5.8,5.1,5.8
	S690.9,230.3,690.9,227.2z"/>
<path class="st3" d="M715.3,225.1c0-2.8-1.5-3.7-3.7-3.7c-2.1,0-3.7,1.2-4.6,2.4v13.5h-5.3v-20h5.3v2.6c1.3-1.5,3.7-3.1,7-3.1
	c4.4,0,6.5,2.5,6.5,6.4v14.1h-5.3V225.1z"/>
<path class="st3" d="M728.1,230.9c1.5,1.4,4.4,2.7,6.9,2.7c2.3,0,3.4-0.8,3.4-2c0-1.4-1.7-1.9-4-2.4c-3.4-0.7-7.9-1.5-7.9-6.3
	c0-3.4,2.9-6.3,8.2-6.3c3.4,0,6.1,1.2,8.1,2.7l-2.1,3.6c-1.2-1.3-3.5-2.3-5.9-2.3c-1.9,0-3.2,0.7-3.2,1.9c0,1.2,1.6,1.7,3.8,2.2
	c3.4,0.7,8.1,1.6,8.1,6.6c0,3.6-3.1,6.4-8.7,6.4c-3.5,0-6.9-1.2-9-3.1L728.1,230.9z"/>
<path class="st0" d="M254.3,216.3v-72.5c5.4-1.2,9.4-6,9.4-11.7c0-6.6-5.4-12-12-12c-3.5,0-6.7,1.5-8.9,4l-63.6-36.4
	c0.4-1.1,0.6-2.3,0.6-3.6c0-6.6-5.4-12-12-12c-6.6,0-12,5.4-12,12c0,1.3,0.2,2.5,0.6,3.6L92.7,124c-2.2-2.4-5.4-4-8.9-4
	c-6.6,0-12,5.4-12,12c0,5.8,4.1,10.6,9.5,11.7l0.1,72.5c-5.5,1.1-9.6,6-9.6,11.8c0,6.6,5.4,12,12,12c3.6,0,6.8-1.6,9-4.1l63.5,36.5
	c-0.4,1.1-0.6,2.4-0.6,3.6c0,6.6,5.4,12,12,12c6.6,0,12-5.4,12-12c0-1.3-0.2-2.5-0.6-3.6l63.6-36.4c2.2,2.4,5.4,4,8.9,4
	c6.6,0,12-5.4,12-12C263.8,222.2,259.7,217.4,254.3,216.3z M200.2,225.4l5.7-9.8c1.2,0.4,2.5,0.6,3.9,0.6c3.6,0,6.9-1.6,9.1-4.2
	l21.5,12.3c-0.1,0.3-0.2,0.7-0.3,1.1H200.2z M95.5,225.4c-0.1-0.4-0.2-0.7-0.3-1.1l21.6-12.4c2.2,2.4,5.4,4,8.9,4
	c1.3,0,2.5-0.2,3.7-0.6l5.9,10H95.5z M135.3,134.6l-10.5,18l-29.6-16.9c0.1-0.3,0.2-0.7,0.3-1.1H135.3z M240.1,134.6
	c0.1,0.4,0.2,0.7,0.3,1.1l-29.6,16.9l-10.5-18H240.1z M91.9,219.2l19.9-34.1l5.9,10.1c-2.4,2.2-3.9,5.3-3.9,8.8
	c0,1.3,0.2,2.5,0.6,3.6L92.7,220C92.4,219.7,92.2,219.4,91.9,219.2z M125.8,192c-1.3,0-2.5,0.2-3.7,0.6l-7.3-12.6l12-20.5l19.1,10.9
	c-1.3,2.9-2,6.2-2,9.6s0.7,6.7,2,9.6l-11.1,6.4C132.5,193.5,129.3,192,125.8,192z M92.7,140l29.6,16.9l-10.5,18l-19.9-34.1
	C92.2,140.6,92.4,140.3,92.7,140z M189.7,170.4l19.1-10.9l12,20.5l-7.5,12.8c-1.1-0.3-2.3-0.5-3.6-0.5c-3.4,0-6.5,1.5-8.7,3.8
	l-11.3-6.5c1.3-2.9,2-6.2,2-9.6S191,173.3,189.7,170.4z M243.7,140.8l-19.9,34.1l-10.5-18l29.6-16.9
	C243.1,140.3,243.4,140.6,243.7,140.8z M217.8,195.4l6-10.3l19.9,34.1c-0.3,0.3-0.5,0.5-0.8,0.8l-21.6-12.3c0.3-1.1,0.5-2.2,0.5-3.3
	C221.8,200.7,220.2,197.6,217.8,195.4z M248.1,216.6L226.7,180l21.3-36.6c0.4,0.1,0.8,0.2,1.2,0.3v72.5
	C248.8,216.4,248.5,216.5,248.1,216.6z M206.3,155.1L187.2,166c-3.9-5.4-9.9-9.1-16.9-9.8v-12.4c4.6-1,8.2-4.6,9.2-9.2h14.8
	L206.3,155.1z M179.5,129.4c-1-4.6-4.6-8.2-9.2-9.2V95.7c0.4-0.1,0.8-0.2,1.2-0.3l19.9,34H179.5z M165.2,95.7v24.5
	c-4.6,1-8.2,4.6-9.2,9.2h-11.8l19.9-34C164.5,95.5,164.8,95.6,165.2,95.7z M156.1,134.6c1,4.6,4.6,8.2,9.2,9.2v12.4
	c-6.9,0.7-13,4.4-16.9,9.8l-19.1-10.9l12-20.5H156.1z M87.5,143.4l21.3,36.6l-21.3,36.6c-0.3-0.1-0.7-0.2-1-0.3l-0.1-72.6
	C86.7,143.6,87.1,143.5,87.5,143.4z M133.9,212.8c2.4-2.2,3.9-5.3,3.9-8.8c0-1.3-0.2-2.5-0.6-3.6l11.1-6.4c3.9,5.4,9.9,9.1,16.9,9.8
	v21.6h-24L133.9,212.8z M165.2,230.6v33.7c-0.4,0.1-0.8,0.2-1.2,0.3l-19.9-34H165.2z M170.3,264.3v-33.7h21l-19.9,34
	C171.1,264.5,170.7,264.4,170.3,264.3z M170.3,225.4v-21.6c6.9-0.7,13-4.4,16.9-9.8l11.2,6.4c-0.4,1.2-0.6,2.5-0.6,3.9
	c0,3.4,1.5,6.5,3.8,8.7l-7.2,12.4H170.3z M240.3,128.4c-0.1,0.3-0.2,0.7-0.3,1.1h-42.8l-21.4-36.6c0.3-0.3,0.5-0.5,0.8-0.8
	L240.3,128.4z M158.9,92c0.3,0.3,0.5,0.6,0.8,0.8l-21.4,36.6H95.5c-0.1-0.4-0.2-0.7-0.3-1.1L158.9,92z M95.3,231.4
	c0.1-0.3,0.2-0.6,0.2-0.9h42.8l21.4,36.6c-0.3,0.3-0.5,0.5-0.8,0.8L95.3,231.4z M176.7,268c-0.3-0.3-0.5-0.6-0.8-0.8l21.4-36.6h42.8
	c0.1,0.4,0.2,0.7,0.3,1.1L176.7,268z"/>
</svg>
