<?xml version="1.0" encoding="utf-8"?>
<!-- Generator: Adobe Illustrator 25.3.1, SVG Export Plug-In . SVG Version: 6.00 Build 0)  -->
<svg version="1.1"
	 id="Logo_Kleur" inkscape:version="0.92.3 (2405546, 2018-03-11)" xmlns:cc="http://creativecommons.org/ns#" xmlns:dc="http://purl.org/dc/elements/1.1/" xmlns:inkscape="http://www.inkscape.org/namespaces/inkscape" xmlns:rdf="http://www.w3.org/1999/02/22-rdf-syntax-ns#" xmlns:sodipodi="http://sodipodi.sourceforge.net/DTD/sodipodi-0.dtd" xmlns:svg="http://www.w3.org/2000/svg"
	 xmlns="http://www.w3.org/2000/svg" xmlns:xlink="http://www.w3.org/1999/xlink" x="0px" y="0px" viewBox="0 0 1000 500"
	 style="enable-background:new 0 0 1000 500;" xml:space="preserve">
<style type="text/css">
	.st0{fill:#14120E;}
	.st1{fill:#14130E;}
	.st2{fill:#15130E;}
	.st3{fill:#15130F;}
	.st4{fill:#15140F;}
	.st5{fill:#161410;}
	.st6{fill:#191713;}
	.st7{fill:#191613;}
	.st8{fill:#181612;}
	.st9{fill:#1E1B18;}
	.st10{fill:#1C1916;}
	.st11{fill:#1A1814;}
	.st12{fill:#1D1B18;}
	.st13{fill:#1D1A17;}
	.st14{fill:#800816;}
</style>
<sodipodi:namedview  bordercolor="#666666" borderopacity="1" gridtolerance="10" guidetolerance="10" id="namedview149" inkscape:current-layer="Logo_Kleur" inkscape:cx="375.18161" inkscape:cy="232.15157" inkscape:pageopacity="0" inkscape:pageshadow="2" inkscape:window-height="1044" inkscape:window-maximized="1" inkscape:window-width="1920" inkscape:window-x="0" inkscape:window-y="36" inkscape:zoom="0.97580736" objecttolerance="10" pagecolor="#ffffff" showgrid="false">
	</sodipodi:namedview>
<path id="path20" class="st0" d="M716.8,353.5c-1.7,0-1.8,0.7-1.7,2c0,0.6,0.3,1.4-0.2,2c-6.5-5.7-12.9-6-18.1-0.9
	c-5.3,5.2-5.8,14.6-1.1,20c2.3,2.9,5.8,4.6,9.5,4.6c4,0,7.1-1.8,9.9-4.7v2.7c-0.1,4.5-1.9,7.2-5.6,8.5c-4.3,1.5-9.4,0.5-11.7-2.7
	c-1.3-1.9-2.7-2.1-4.9-1.8c1,3.5,3.6,6.2,7,7.5c9.8,3.9,18.3-1.8,18.5-12.4c0.1-7.7,0-15.3,0.1-22.9
	C718.5,354.3,718.5,353.5,716.8,353.5z M705.5,377.9c-5.7,0-9.7-4.5-9.6-10.7s4.5-10.9,10-10.8s9.5,4.9,9.3,11.1
	C715.1,373.9,711.2,378,705.5,377.9z"/>
<path id="path22" class="st1" d="M855.1,353.6c-1.4,0-1.7,0.5-1.6,1.8c0.2,0.8,0.1,1.6-0.2,2.3c-6.3-5.7-12.9-6-18-0.9
	c-5.3,5.2-5.8,14.6-1.2,20c2,2.5,4.9,4.2,8.1,4.6c4.5,0.5,8.1-1.2,11.3-4.8c0,1.2,0,2,0,2.8c0,4.5-1.8,7.2-5.5,8.5
	c-4.3,1.5-9.4,0.6-11.7-2.6c-0.9-1.7-2.9-2.5-4.8-1.8c1.8,6.2,8.4,9.7,15.6,8.3c6-1.2,9.5-5.6,9.7-12.3c0.2-8,0-15.9,0.2-23.8
	C856.9,354.1,856.7,353.5,855.1,353.6z M852.6,372.5c-1.7,4.1-6.2,6.4-10.5,5.3c-5-1.1-7.9-4.8-7.9-10.9c0-3.8,2.1-7.3,5.4-9.1
	c4.5-2.5,10.1-0.9,12.6,3.6c0.1,0.1,0.1,0.3,0.2,0.4C854.1,365.1,854.2,369,852.6,372.5z"/>
<path id="path24" class="st2" d="M455.2,427.2c-2.8-2.7-2.8-2.8,0-5.2c1-0.8,1-1.3,0.1-2.1c-0.6-0.6-0.9-1.7-2.4-0.6
	c-3.3,2.5-3.3,2.4-6.4-0.6c-0.6-0.7-1.3-1.4-2-2.1c-1-1-2.5-2-2.7-3.2c-0.3-1.4,1.7-2.1,2.6-3.2c1.5-1.8,3.1-3.7,2.6-6.4
	c-0.6-3-3.2-5.2-6.2-5.3c-3.8-0.4-7.3,1.2-8.4,4.1c-0.5,1-0.5,2.2-0.3,3.2c0.4,1.4,1,2.7,1.9,3.8c2,2.9,2,2.9-0.6,5.4
	c-1.8,1.5-3.3,3.3-4.3,5.4c-2.5,5.5,1,11.2,7.1,11.5c4.6,0.2,8.4-1.6,11.7-4.4c1.1-0.9,1.7-1,2.6,0.2c1.9,2.4,4.1,4.3,8.1,2.8
	C457.5,429.3,456.3,428.3,455.2,427.2z M439.7,401.8c2.2,0,3.9,1.3,3.9,2.9c0,1.4-3.3,5.7-4.4,5.6c-0.9,0-3.5-4.4-3.5-5.6
	C435.8,403,437.5,401.8,439.7,401.8L439.7,401.8z M439.1,428.7c-2.3,0.7-4.7-0.1-6.2-1.9c-1.4-1.9-1.2-3.8,0-5.8
	c0.3-0.4,0.4-0.8,0.7-1.2c1.3-1.6,2.8-3.5,4.6-4c2.1-0.5,2.7,2.3,4.2,3.4c1.7,1.3,3.3,2.7,5.3,4.3
	C444.4,425.9,442.1,427.9,439.1,428.7L439.1,428.7z"/>
<path id="path26" class="st3" d="M300.3,345.2c0-1.3,0.1-2.1-1.7-2.2c-2.1,0-1.6,1.1-1.6,2.2c0,4.2,0,8.5,0,13.2
	c-0.9-0.9-1.4-1.4-1.8-1.9c-2.8-3.1-7.1-4.2-11-2.9c-5.9,1.6-8.9,6-9.6,11.7c-0.9,6,1.1,11.2,6.3,14.7c5,3.3,10.5,2.4,16.3-2.9
	c0,0.9,0,1.5,0,2c0,1-0.6,2.3,1.5,2.3c2,0,1.9-0.9,1.9-2.3C300.3,367.8,300.2,356.5,300.3,345.2z M290.9,377.6
	c-3.3,1.6-7.3,0.9-9.8-1.7c-3.3-3-4.5-7.8-3-12c1.5-4.8,6.1-8,10.4-7.3c5.2,0.8,8.6,5.3,8.6,12.2
	C296.9,372.7,294.5,376.1,290.9,377.6L290.9,377.6z"/>
<path id="path28" class="st1" d="M583.3,410.2c5.1-6.8,14.3-5.7,16.4,1c1-1.6,2.4-3,3.9-4.1c5.9-3.7,12.9-0.6,13.4,6.3
	c0.4,5.5,0.1,11,0.2,16.4c0,1.6-1,1-1.8,1.1c-1,0.1-1.6-0.1-1.6-1.4c0-5.2,0.1-10.3-0.1-15.5c-0.1-4.3-3.5-6.5-7.6-5.2
	c-2.6,0.8-4.7,2.9-5.3,5.6c-0.4,1.9-0.6,3.8-0.5,5.7c0,3-0.1,6,0,9.1c0,1.4-0.4,1.7-1.7,1.7s-1.7-0.5-1.7-1.8
	c0-4.9,0.2-9.9-0.2-14.8c-0.3-2.8-1.2-4.9-4.1-5.7s-5.1,0.4-7,2.4c-2,2.2-2.3,5-2.4,7.8c-0.1,3.4-0.1,6.8-0.1,10.3
	c0,1.2-0.2,1.8-1.6,1.8s-1.7-0.4-1.7-1.7c0.1-7.1,0.1-14.3,0-21.5c0-1.4,0.4-1.7,1.7-1.7s1.8,0.5,1.6,1.8
	C583.3,408.6,583.3,409.4,583.3,410.2z"/>
<path id="path30" class="st1" d="M248.8,410.1c5.7-7.1,14.6-5.1,16.4,1.1c1-1.3,2.1-2.6,3.3-3.6c2.6-2.1,6.1-2.6,9.2-1.3
	c3.3,1.3,4.7,4.1,4.9,7.3c0.3,5.4,0.1,10.8,0.2,16.2c0,1.5-0.9,1.1-1.7,1.2c-1.2,0.1-1.7-0.3-1.6-1.5c0.1-5.1,0.1-10.2,0-15.3
	c-0.1-3.8-3.2-6.3-6.7-5.6c-3.1,0.5-5.5,2.9-6.2,5.9c-0.4,1.9-0.6,3.8-0.5,5.7c0,3,0,6,0,9.1c0,1.3-0.3,1.8-1.7,1.8
	s-1.7-0.4-1.7-1.7c0-4.9,0.3-9.9-0.2-14.8c-0.4-3.6-1.5-5.1-4.3-5.8c-3-0.7-5.2,0.6-7.1,2.8s-2,4.8-2.1,7.4
	c-0.1,3.4-0.1,6.8-0.1,10.3c0,1.2-0.1,1.8-1.6,1.8s-1.8-0.6-1.8-1.9c0.1-6.9,0-13.8,0-20.7c0-1.1-0.4-2.3,1.6-2.3s1.6,1.1,1.6,2.3
	C248.8,408.8,248.8,409.2,248.8,410.1z"/>
<path id="path32" class="st1" d="M469.6,367.9c3.1,0.1,6.2,0,9.3,0h7.4c4.5,0,4.5,0,3.5-4.4c-2-8.7-11.3-13.3-18.6-8.8
	c-5.3,3.3-7,8.6-6.6,14.6c0.4,5.8,4.6,10.9,9.7,12.2c5.6,1.4,11.4-1.1,14.2-6.2c0.6-1,0.8-1.5-0.5-2.3c-1.6-1.2-1.9-0.1-2.6,0.9
	c-2.1,3.4-6.1,5.1-10,4.4c-4-0.9-6.8-4.2-7.5-8.5C467.7,368.2,468.1,367.8,469.6,367.9z M468.6,363c1.5-4.1,4.9-6.7,9-6.5
	c4.4,0.2,7.6,3,8.9,8.1c-5.7,0-11.2,0-16.8,0C468.2,364.6,468.2,364.2,468.6,363L468.6,363z"/>
<path id="path34" class="st1" d="M559.9,367.9c3.1,0.1,6.2,0,9.3,0h7.4c4.3,0,4.4,0,3.3-4.3c-1.3-5.3-4.3-9.2-9.9-10.3
	c-4.7-1.2-9.7,0.8-12.3,4.9c-3.6,4.8-4.1,11.3-1.2,16.6c1.8,4.3,6.1,7,10.7,7c5.3,0.1,9.1-2.2,11.7-6.7c0.5-0.8,0.7-1.3-0.3-1.9
	c-1.2-0.8-2-1-2.9,0.5c-2.1,3.4-6,5.3-9.9,4.6c-4-0.9-6.9-4.1-7.7-8.5C557.8,368.3,558.2,367.8,559.9,367.9z M558.9,363
	c1.2-4,4.9-6.7,9.1-6.6c4.5,0.3,7.9,3.3,8.7,8.1c-5.6,0-11.2,0-16.8,0C558.3,364.6,558.4,364.1,558.9,363L558.9,363z"/>
<path id="path36" class="st1" d="M367,367.9c3.1,0.1,6.2,0,9.3,0h7.4c4.5,0,4.5,0,3.5-4.4c-1.9-8.7-11.4-13.3-18.5-8.9
	c-5.3,3.3-7.1,8.5-6.7,14.6c0.4,5.8,4.6,10.9,9.7,12.2c5.4,1.4,11.1-0.9,14-5.7c0.5-0.7,1.8-1.5,0.1-2.6c-1.5-0.9-2-0.6-2.9,0.6
	c-2.1,3.4-6.1,5.2-10,4.4c-4-1-7.1-4.3-7.6-8.5C365.1,368.3,365.4,367.8,367,367.9z M366,363.2c1.2-4.1,5-6.9,9.2-6.8
	c4.5,0.3,8.1,3.7,8.6,8.1c-5.7,0-11.3,0-16.9,0C365.7,364.6,365.6,364.3,366,363.2L366,363.2z"/>
<path id="path38" class="st3" d="M822.5,396.5c-1.2,0-1.6,0.3-1.6,1.6c0.1,3.9,0,7.9,0,11.9c-7.8-5.7-13.8-5.8-19-0.6
	c-4.5,4.5-5.1,11.6-1.2,16.8c2.2,3.2,5.8,5.1,9.6,5.3c4.1,0.3,7.5-1.4,10.6-4.4v1.9c0,1.1-0.3,2.1,1.5,2.1s1.9-0.7,1.9-2.1
	c0-10.2,0-20.5,0-30.7C824.3,396.6,823.7,396.6,822.5,396.5z M811.4,428.5c-5.5-0.1-9.9-4.6-9.9-10.1c0.1-5.4,4.4-9.8,9.8-9.9
	c5.5,0,10,4.4,10,10S816.9,428.5,811.4,428.5L811.4,428.5z"/>
<path id="path40" class="st4" d="M313.8,406.1c-1.5,0-1.8,0.4-1.7,1.7c0,0.6,0.3,1.4-0.2,2c-6.9-5.5-13.7-5.6-18.8-0.4
	c-4.7,4.7-5,12.2-0.7,17.4c5,5.9,11.5,6.1,19.8,0.5v1.7c-0.1,1.2-0.1,2.1,1.6,2c1.6,0,1.7-0.7,1.7-2c0-7.1-0.1-14.2,0-21.2
	C315.5,406.4,315.1,406.1,313.8,406.1z M302.5,428.5c-5.5-0.2-9.8-4.7-9.8-10.2c0.1-5.4,4.5-9.8,9.9-9.8c5.5,0,10,4.5,9.9,10
	C312.5,424.1,308,428.5,302.5,428.5L302.5,428.5z"/>
<path id="path42" class="st3" d="M404.9,406.1c-1.8-0.1-1.6,0.9-1.6,2v1.9c-6.7-5.4-13.2-5.8-18.2-1.4c-4.9,4.1-6.1,11.1-2.7,16.5
	c2.1,3.6,5.8,5.9,9.9,6.2c4.2,0.4,7.8-1.2,11-4.4v2c-0.1,1.2-0.1,2,1.6,2c1.6,0,1.7-0.8,1.7-2c0-7,0-14,0-21
	C406.7,406.6,406.4,406.1,404.9,406.1z M393.6,428.5c-5.4-0.2-9.7-4.6-9.7-10s4.3-9.8,9.7-10c5.5,0,10,4.5,10,10
	S399.1,428.5,393.6,428.5z"/>
<path id="path44" class="st4" d="M648.3,406.1c-1,0-1.9,0-1.7,1.4c0.1,0.9,0.1,1.8,0,2.7c-5.9-5.5-13-6.1-18.1-1.7
	c-5.1,4.3-6.2,11.7-2.5,17.2c1.7,2.7,4.5,4.6,7.6,5.4c4.9,1.1,9.2-0.3,13-4.1c0,1,0,1.4,0,1.9c0,1.1-0.3,2.1,1.5,2.1
	s1.8-0.8,1.8-2.1c0-7.1,0-14.2,0-21.3C650.1,406.3,649.5,406,648.3,406.1z M637,428.5c-5.5,0-10-4.4-10-10s4.4-10,10-10
	s10,4.4,10,10S642.5,428.5,637,428.5z"/>
<path id="path46" class="st1" d="M836.3,418.9c3.1,0.1,6.2,0,9.3,0s6.4,0,9.5,0c1.1,0,1.7-0.2,1.6-1.6c-0.5-7.1-6.7-12.4-13.8-11.9
	c-6.4,0.5-11.4,5.5-11.9,11.9c-0.3,6.1,3,11.5,8,13.2c6.1,2.1,12.3,0.2,15.7-4.7c1.2-1.7,0.9-2.4-1.1-2.9c-1.3-0.3-1.3,0.9-1.8,1.5
	c-2.3,3.1-6.1,4.6-9.9,3.9c-4.1-0.7-6.5-3.3-7.5-7.3C834.1,419.3,834.6,418.9,836.3,418.9z M835.2,414.6c1.3-3.8,5-6.2,9-6.1
	c4.2,0.1,7.3,2.7,8.8,7.6c-5.8,0-11.4,0-17,0C834.4,416.1,834.8,415.5,835.2,414.6z"/>
<path id="path48" class="st1" d="M688.5,418.9c3.2,0.1,6.4,0,9.5,0s6.5,0,9.8,0c1.2,0,1.5-0.4,1.4-1.5c-0.4-6.1-5.1-11.1-11.1-11.9
	c-6.9-0.8-12.3,3-14.1,9.6c-1.6,5.8,1.4,12.5,6.5,15c5.9,2.8,12.9,1.1,16.8-4.2c1.2-1.7,0.9-2.4-1-3c-1.3-0.4-1.3,0.9-1.8,1.5
	c-2.7,3.1-6,4.6-10.1,3.8s-6.4-3.5-7.4-7.4C686.7,419.6,686.8,418.9,688.5,418.9z M687.7,414.6c1.3-3.9,5.1-6.4,9.2-6.1
	c4.4,0.3,7.5,3,8.5,7.6c-5.7,0-11.4,0-17.1,0C686.9,416.1,687.4,415.4,687.7,414.6L687.7,414.6z"/>
<path id="path50" class="st3" d="M783.8,358.2c1.7-1.7,2.9-3.1,4.6-4c5.9-3,12.2,0.1,13.4,6.6c0.6,3.3,0.4,6.6,0.5,10
	c0,2.9,0,5.7,0,8.6c0,1.3,0,2-1.7,2s-1.7-0.9-1.7-2c0-4.4,0-8.9,0-13.3c0-1.3-0.1-2.7-0.4-4c-1-5.2-6.2-7.2-10.5-4
	c-2.3,1.7-3.8,4.4-4,7.3c-0.4,4.7-0.3,9.4-0.3,14c0,1.1,0.3,2.1-1.6,2.1s-1.8-0.9-1.8-2.2c0-7.9,0-15.7,0-23.6c0-1.2,0-2,1.7-2
	s1.8,0.7,1.7,2C783.8,356.2,783.8,356.9,783.8,358.2z"/>
<path id="path52" class="st3" d="M613,358.2c1.7-1.8,2.9-3.2,4.8-4.1c5.9-2.8,12,0.2,13.3,6.6c0.4,3,0.6,6,0.5,9
	c0,3.3-0.1,6.5,0,9.8c0,1.3-0.3,1.8-1.7,1.8s-1.7-0.4-1.7-1.7c0.1-4.5,0-9.1,0-13.6c0-1,0-1.9-0.1-2.9c-0.4-3-1.3-5.6-4.7-6.4
	s-5.9,0.7-7.9,3.1c-1.3,1.5-2,3.4-2.2,5.4c-0.4,4.8-0.3,9.5-0.3,14.3c0,1.2-0.2,1.9-1.6,1.8c-1.3,0-1.8-0.3-1.8-1.7
	c0.1-8.1,0.1-16.2,0-24.3c0-1.4,0.4-1.7,1.7-1.7s1.8,0.5,1.6,1.8C612.9,356.1,613,356.9,613,358.2z"/>
<path id="path54" class="st3" d="M719.4,416.1c3.3-2.9,6.4-5.3,9.1-8c2-2,4.2-2.2,6.9-1.8c-4.1,3.6-8,7.1-12,10.5
	c-1.2,1-1.3,1.5,0,2.6c4.3,3.6,8.4,7.4,12.8,11.3c-2.8,0.6-4.9,0.2-6.9-1.8c-3-3-6.3-5.7-10-8.9c0,3.5-0.1,6.5,0,9.4
	c0,1.4-0.5,1.6-1.6,1.5s-1.8,0-1.8-1.5c0.1-10.5,0.1-21,0-31.5c0-1.5,0.7-1.4,1.7-1.5s1.7,0.2,1.7,1.5
	C719.4,403.9,719.4,409.6,719.4,416.1z"/>
<path id="path56" class="st3" d="M545.7,405.6c-7.1-0.2-13,5.5-13.2,12.6s5.5,13,12.6,13.2c0.2,0,0.5,0,0.7,0
	c6.9,0.2,12.6-5.2,12.8-12.1c0-0.3,0-0.6,0-0.9c0.2-6.9-5.3-12.7-12.3-12.9C546.1,405.6,545.9,405.6,545.7,405.6z M545.7,428.5
	c-5.5,0-9.7-4.5-9.7-10.2c0-5.3,4.3-9.7,9.6-9.8c5.3,0,9.6,4.6,9.6,10.3C555.3,424.1,551.1,428.4,545.7,428.5
	C545.8,428.5,545.8,428.5,545.7,428.5z"/>
<path id="path58" class="st3" d="M210.6,405.6c-7-0.1-12.7,5.5-12.8,12.5c0,0.2,0,0.4,0,0.5c0,7.3,5.6,12.8,13,12.8
	s12.8-5.5,12.8-13c0.1-6.9-5.4-12.7-12.4-12.8C211,405.6,210.8,405.6,210.6,405.6z M210.6,428.5c-5.4,0-9.5-4.4-9.5-10
	c0-5.4,4.2-9.8,9.6-10c5.3,0,9.5,4.6,9.5,10.1c0.2,5.3-4,9.7-9.3,9.9C210.8,428.5,210.7,428.5,210.6,428.5z"/>
<path id="path60" class="st5" d="M227.3,363.3c0,2.5-0.1,5.1,0,7.6c0.2,4.6,3.2,7.6,7.5,7.5s7.2-3.1,7.3-7.7
	c0.1-5.1,0.1-10.2,0-15.3c0-1.5,0.4-1.9,1.9-1.9s1.6,0.8,1.5,1.9c-0.2,5.9,0.6,11.8-0.5,17.6c-1.1,6.1-5,8.9-11.3,8.7
	c-5.2-0.2-9-4-9.6-9.7s-0.2-11.4-0.4-17.2c0-1.6,0.9-1.3,1.9-1.3s1.6,0,1.6,1.3c-0.1,2.8,0,5.6,0,8.4h0.1V363.3z"/>
<path id="path62" class="st3" d="M491.8,410.4c2.3-2.7,4.7-4.3,7.7-4.7c6-0.8,10.3,2.7,10.7,9.2c0.3,4.9,0.1,9.9,0.2,14.8
	c0,1.7-1,1.1-1.9,1.3c-1.1,0.1-1.5-0.3-1.5-1.4c0.1-4.1,0-8.3,0-12.4c0-1-0.1-1.9-0.2-2.9c-0.6-6.2-6.9-6.9-10.5-4.4
	c-2.5,1.5-4,4.2-4.2,7.1c-0.4,4.1-0.3,8.3-0.2,12.4c0,1.4-0.4,1.7-1.7,1.7s-1.7-0.5-1.7-1.8c0-7.1,0.1-14.1,0-21.2
	c0-1.4,0.3-1.9,1.8-1.9s1.7,0.7,1.5,1.9C491.7,408.5,491.8,409.1,491.8,410.4z"/>
<path id="path64" class="st3" d="M157.2,410.2c2.8-3,5.8-4.8,9.6-4.6c4.1,0,7.7,2.9,8.4,7c1.1,5.7,0.3,11.6,0.5,17.4
	c0.1,1.6-1.2,0.8-1.9,1c-0.9,0.2-1.4-0.1-1.4-1.2c0.1-3.6,0-7.1,0-10.7c0-0.9,0-1.8,0-2.6c-0.1-5.1-2.1-7.6-6.1-7.8
	c-4.5,0-8.2,3.3-8.8,7.7c-0.4,4.4-0.5,8.7-0.3,13.1c0,1.1-0.1,1.8-1.5,1.7c-1.1-0.1-1.9,0-1.9-1.6c0.1-7.2,0.1-14.5,0-21.7
	c0-1.5,0.7-1.5,1.9-1.6c1.4-0.1,1.6,0.5,1.5,1.6C157.2,408.4,157.2,409.1,157.2,410.2z"/>
<path id="path66" class="st3" d="M772.9,410.4c2.3-2.8,4.8-4.4,7.8-4.8c6-0.7,10.2,2.9,10.6,9.4c0.3,4.8,0.1,9.7,0.2,14.5
	c0,1.4-0.7,1.3-1.6,1.3s-1.9,0.3-1.7-1.2c0-0.5,0-1,0-1.4c0-4.1,0-8.1,0-12.2c-0.1-4.6-1.7-6.8-5.1-7.5s-7.2,1.4-8.9,4.9
	c-1,1.9-1,4-1,6c-0.2,3.3-0.1,6.5-0.1,9.8c0,1.1-0.1,1.8-1.5,1.7c-1.1-0.1-1.9,0-1.9-1.6c0.1-7.2,0.1-14.5,0-21.7
	c0-1.5,0.7-1.5,1.8-1.6c1.4-0.1,1.6,0.5,1.5,1.6C772.8,408.4,772.9,409.1,772.9,410.4z"/>
<path id="path68" class="st5" d="M743.6,414.7c0,2.4-0.1,4.8,0,7.1c0.2,4.2,3.3,6.8,7.7,6.7c3.8,0.1,7-2.9,7.2-6.7
	c0-0.1,0-0.2,0-0.3c0.1-4.5,0.1-9,0-13.6c0-1.4,0.2-1.9,1.8-1.9s1.6,0.6,1.6,1.8c-0.2,5.2,0.5,10.5-0.5,15.7
	c-1.1,5.6-5.1,8.2-11.7,7.9c-5-0.2-9-4.1-9.3-9.1c-0.5-4.9-0.2-9.8-0.3-14.8c0-1.5,0.7-1.5,1.7-1.5s1.8,0,1.8,1.5
	C743.5,409.9,743.6,412.3,743.6,414.7L743.6,414.7z"/>
<path id="path70" class="st3" d="M362.5,431.4c-7.6,0-13.4-5.4-13.5-12.4c0-7.5,5.7-13.2,13.4-13.3c4,0,7.7,0.9,10.6,3.9
	c0.5,0.5,1.7,1.1,0.8,2c-0.8,0.7-1.7,1.6-3.1,0.2c-4.3-4.3-11.2-4.4-15.6-0.2c-0.1,0.1-0.2,0.2-0.4,0.4c-2.8,3.2-3.3,7.8-1.1,11.5
	c2.3,3.8,6.7,5.8,11,5c2.4-0.3,4.6-1.5,6.2-3.2c1.3-1.5,2.1-0.3,2.9,0.3c1.2,1-0.2,1.5-0.6,2C370.6,430.1,367,431.4,362.5,431.4z"/>
<path id="path72" class="st3" d="M426.1,373.2c2.3-5.7,4.7-11.2,6.9-16.8c0.8-2.2,1.8-3.4,4.6-2.5c-3.8,9.2-7.5,18.3-11.3,27.5h-0.6
	c-3.8-9.1-7.5-18.3-11.3-27.5c2.4-0.8,3.6-0.1,4.5,2.2c1.9,5.1,4.1,10.1,6.2,15.1C425.2,371.9,425.2,372.6,426.1,373.2z"/>
<path id="path74" class="st4" d="M143.6,375.7c1.2,0.8,2.2,1.9,3.6,2.4c2.1,0.8,4.4,0,5.6-1.8c1.2-1.9,0.7-4.4-1.1-5.7
	c-1.6-1.2-3.3-2.1-5-3.3c-2.3-1.6-3.9-3.7-3.9-6.7c0-3.4,1.6-6.1,4.5-7.1c3.2-0.9,6.5,0.2,8.6,2.8c1.3,1.7-1,1.9-1.2,3.1
	c-1.3-0.8-2.2-1.9-3.6-2.5c-1.6-0.8-3.4-0.3-4.4,1.1c-1.1,1.2-1.2,3.1-0.2,4.4s2.3,2.4,3.9,3.1c1.5,0.8,3,1.8,4.2,3
	c3,3.3,2.8,8.4-0.6,11.4l-0.1,0.1c-3.1,2.8-9.1,2.2-11.6-1.1C141.6,378.1,141.6,378.1,143.6,375.7z"/>
<path id="path76" class="st6" d="M519.6,419.8c0-3,0-6,0-9.1c0-1.2-0.1-2-1.6-1.8c-1.1,0.2-1.7-0.1-1.7-1.5c0-1.5,0.8-1.5,1.8-1.4
	c1.4,0.2,1.5-0.6,1.5-1.7c0-1.4,0-2.9,0.2-4.3c0.6-2.9,3.4-4.8,6.3-4.3c0.6,0.1,1.2,0.4,1.8,0.7c1,0.7,0.6,1.8,0.4,2.5
	s-1,0.2-1.5,0.1c-2.8-0.6-3.7-0.1-3.8,2.7c0,0.3,0,0.6,0,1c-0.1,3.1-0.1,3.1,3,3.2c0.9,0,2-0.5,2,1.3s-1.1,1.6-2.1,1.5
	c-2.5-0.4-3.1,0.6-3,3c0.2,5.7,0,11.4,0.1,17.2c0,1.2-0.2,1.8-1.6,1.8s-1.9-0.4-1.8-1.9C519.7,426,519.6,422.9,519.6,419.8z"/>
<path id="path78" class="st7" d="M194,399.6c-0.7-0.1-1.2-0.2-1.6-0.3c-3-0.8-3.8-0.2-3.9,2.8c0,0.4,0,0.8-0.1,1.2
	c-0.5,2.4,0.5,3.2,2.9,2.9c0.7-0.1,2-0.8,2.2,0.9c0.1,1.5-0.4,2-1.9,2c-3.1-0.1-3.1,0-3.1,3.1c0,5.6,0,11.3,0,16.9
	c0,1.3-0.1,2-1.7,2s-1.8-0.6-1.8-2c0.1-6,0-11.9,0-17.9c0-1.4,0-2.5-1.9-2.2c-1,0.2-1.3-0.3-1.3-1.3s0.1-1.8,1.4-1.5
	c1.7,0.3,2-0.5,1.9-2c-0.1-1-0.1-2.1,0-3.1c0.4-4.2,3.9-6.1,7.9-4.6C194.8,397.2,193.5,398.5,194,399.6z"/>
<path id="path80" class="st2" d="M187.8,368.9c0-3.2-0.1-6.4,0-9.5c0.1-2-0.4-2.8-2.4-2.4c-1.2,0.2-2.1,0.1-2-1.6
	c0.1-1.3,0.3-2,1.7-1.7c2.4,0.5,2.9-0.7,2.7-2.8c-0.2-2,0-4-0.1-6c-0.1-1.3,0.3-1.8,1.7-1.8s1.7,0.4,1.7,1.7c-0.1,2.4,0,4.8-0.1,7.1
	c-0.1,1.4,0.3,1.9,1.7,1.7c0.8-0.1,1.6,0,2.4,0c1.5-0.1,1.1,1,1.1,1.8s0.2,1.6-1.1,1.6s-3.2-0.7-3.8,0.3s-0.3,2.9-0.3,4.4
	c0,6,0,11.9,0,17.9c0,1.3-0.2,1.8-1.6,1.8s-1.8-0.4-1.7-1.7C187.8,376,187.8,372.5,187.8,368.9z"/>
<path id="path82" class="st2" d="M329.5,419.7c0,3.3-0.1,6.5,0,9.8c0.1,1.5-0.6,1.5-1.7,1.5s-1.7-0.1-1.7-1.5
	c0.1-6.1,0-12.2,0.1-18.3c0-1.8-0.5-2.3-2.2-2.2c-0.7,0.1-2,0.8-2.2-0.9s0.4-2.2,2-1.9c2,0.4,2.7-0.4,2.4-2.4
	c-0.2-1.7,0-3.5-0.1-5.2c0-1.3,0-2,1.7-2s1.7,0.9,1.6,2c0,2,0.1,4,0,6c-0.1,1.4,0.4,1.8,1.7,1.6c0.7-0.1,1.4,0,2.1,0
	c1-0.1,1.4,0.3,1.4,1.4s-0.2,1.5-1.4,1.6c-3.8,0.2-3.8,0.2-3.8,4L329.5,419.7z"/>
<path id="path84" class="st2" d="M664,419.7c0,3.3-0.1,6.5,0,9.8c0.1,1.4-0.6,1.5-1.7,1.5s-1.7-0.1-1.7-1.5c0.1-6.1,0-12.2,0.1-18.3
	c0-1.8-0.5-2.3-2.2-2.2c-0.7,0.1-2,0.8-2.2-0.9s0.4-2.2,2-1.9c2,0.4,2.7-0.4,2.4-2.4c-0.2-1.7,0-3.5,0-5.2c-0.1-1.3,0-2,1.7-2
	s1.7,0.9,1.6,2c0,2,0.1,4,0,6c-0.1,1.4,0.4,1.8,1.7,1.6c0.7-0.1,1.4,0,2.1,0c1-0.1,1.4,0.3,1.4,1.4s-0.2,1.5-1.4,1.5
	c-3.8,0.1-3.8,0.2-3.8,4L664,419.7L664,419.7z"/>
<path id="path86" class="st2" d="M521.4,357.1c1.9-2.5,3.8-4.3,6.8-4c0.9,0.1,2.3,0.1,2,1.3c-0.2,0.9-0.3,2.8-2.5,2.2
	s-3.5,1-4.5,2.7c-1.3,2.3-1.9,4.9-1.8,7.6c-0.1,4,0,8.1,0,12.2c0,1.1,0.4,2.3-1.6,2.3s-1.7-1-1.7-2.2c0-7.8,0-15.6,0-23.4
	c0-1.1-0.4-2.3,1.6-2.3s1.7,1.1,1.7,2.3C521.3,356.1,521.3,356.4,521.4,357.1z"/>
<path id="path88" class="st3" d="M233.1,409.3c2.2-2.5,4.4-4.1,7.4-3.5c0.5,0.1,1.8,0,1.4,1.1c-0.3,0.8-0.7,1.9-1.8,2
	c-4.6,0.4-6,1.6-6.8,6.2c-0.8,4.7-0.3,9.5-0.4,14.3c0,1.2-0.2,1.6-1.6,1.7c-1.5,0-1.8-0.4-1.8-1.8c0.1-7.1,0-14.1,0-21.2
	c0-1.1-0.2-2,1.5-1.9c1.4,0,2.1,0.3,1.8,1.8C233,408.3,233,408.8,233.1,409.3z"/>
<path id="path90" class="st3" d="M567.6,409.2c2-2.2,3.9-3.8,6.7-3.6c0.9,0.1,2.3,0.2,2.2,1.1s-0.5,2.4-2.5,1.9
	c-2.6-0.6-5.3,2.1-5.9,5.9c-0.9,4.8-0.3,9.6-0.4,14.5c0,1.2,0,2.1-1.7,2c-1.4-0.1-1.7-0.4-1.7-1.8c0.1-7.1,0-14.1,0-21.2
	c0-1.2-0.1-2.1,1.6-2s1.9,0.7,1.7,2C567.6,408.4,567.6,408.8,567.6,409.2z"/>
<path id="path92" class="st8" d="M333.3,367.4c0,4.1-0.1,8.3,0,12.4c0,1.4-0.5,1.5-1.7,1.5s-1.7,0-1.7-1.5c0.1-8.2,0.1-16.5,0-24.8
	c0-1.4,0.6-1.5,1.7-1.5s1.7,0.1,1.7,1.5C333.3,359.2,333.3,363.3,333.3,367.4z"/>
<path id="path94" class="st8" d="M750.9,367.5c0,4,0,8.1,0,12.1c0,1.3-0.3,1.8-1.7,1.8s-1.7-0.4-1.7-1.8c0.1-8.1,0.1-16.2,0-24.3
	c0-1.4,0.4-1.7,1.7-1.8s1.7,0.5,1.7,1.8C750.9,359.4,750.9,363.4,750.9,367.5z"/>
<path id="path96" class="st8" d="M664.1,367.5c0,4,0,8.1,0,12.1c0,1.3-0.3,1.8-1.7,1.8s-1.7-0.4-1.7-1.8c0.1-8.1,0.1-16.2,0-24.3
	c0-1.4,0.4-1.7,1.7-1.8s1.7,0.5,1.7,1.8C664,359.4,664.1,363.4,664.1,367.5z"/>
<path id="path98" class="st6" d="M146.7,418.5c0,3.6-0.1,7.3,0,11c0,1.4-0.6,1.5-1.7,1.5s-1.7-0.1-1.7-1.5c0.1-7.3,0.1-14.6,0-21.9
	c0-1.4,0.6-1.5,1.7-1.5s1.7,0.1,1.7,1.5C146.7,411.2,146.7,414.9,146.7,418.5z"/>
<path id="path100" class="st6" d="M342.9,418.7c0,3.6-0.1,7.1,0,10.7c0,1.4-0.5,1.5-1.7,1.5s-1.8,0-1.7-1.5c0.1-7.3,0.1-14.6,0-21.9
	c0-1.4,0.6-1.5,1.7-1.5s1.8,0,1.7,1.5C342.8,411.3,342.9,415,342.9,418.7z"/>
<path id="path102" class="st6" d="M478,418.3c0-3.5,0.1-7,0-10.5c0-1.4,0.4-1.7,1.7-1.7s1.7,0.5,1.6,1.8c0,7.1,0,14.3,0,21.4
	c0,1.3-0.3,1.8-1.7,1.7s-1.7-0.4-1.7-1.8C478,425.6,478,421.9,478,418.3z"/>
<path id="path104" class="st6" d="M674.1,418.3c0-3.5,0.1-7,0-10.5c0-1.4,0.4-1.7,1.7-1.7s1.7,0.5,1.7,1.8c-0.1,7.1-0.1,14.3,0,21.4
	c0,1.3-0.3,1.8-1.7,1.7s-1.7-0.4-1.7-1.8C674.2,425.6,674.1,421.9,674.1,418.3z"/>
<path id="path106" class="st9" d="M665.2,345.6c-0.3,1.5-0.9,2.8-2.7,2.8c-1.4,0.1-2.6-0.9-2.7-2.4c0-0.2,0-0.4,0-0.5
	c-0.1-1.4,0.9-2.6,2.3-2.8c0.1,0,0.2,0,0.3,0C664.3,342.6,665,343.9,665.2,345.6z"/>
<path id="path108" class="st10" d="M746.6,345.5c0.3-1.5,0.9-2.8,2.6-2.9s2.8,1.2,2.8,2.8s-0.8,2.9-2.8,2.9S746.9,347,746.6,345.5z"
	/>
<path id="path110" class="st11" d="M331.6,342.6c1.5-0.1,2.8,1,2.9,2.4c0,0.2,0,0.3,0,0.5c0.2,1.4-0.8,2.6-2.2,2.8
	c-0.1,0-0.3,0-0.4,0c-1.9,0-2.7-1.2-2.7-2.9C329,344,330.1,342.7,331.6,342.6C331.5,342.6,331.5,342.6,331.6,342.6z"/>
<path id="path112" class="st12" d="M341.1,401.4c-1.4,0-2.5-1.2-2.4-2.6c0-0.1,0-0.2,0-0.2c0.1-1.5,1.4-2.5,2.9-2.4
	c1.4,0.1,2.4,1.3,2.4,2.6C344,400.4,342.9,401.3,341.1,401.4z"/>
<path id="path114" class="st13" d="M479.5,401.4c-1.4,0-2.5-1.1-2.5-2.5c0-0.1,0-0.2,0-0.3c0-1.3,1-2.4,2.3-2.5c0.1,0,0.2,0,0.3,0
	c1.3-0.2,2.5,0.8,2.7,2.1c0,0.2,0,0.3,0,0.5C482.4,400.4,481.4,401.3,479.5,401.4z"/>
<path id="path116" class="st13" d="M676,401.4c-1.7,0-2.8-0.9-2.8-2.6c-0.1-1.4,0.9-2.6,2.2-2.7c0.1,0,0.3,0,0.5,0
	c1.3-0.1,2.5,0.8,2.6,2.2c0,0.1,0,0.2,0,0.3c0.2,1.4-0.8,2.6-2.1,2.8C676.2,401.4,676.1,401.4,676,401.4z"/>
<path id="path118" class="st13" d="M145,401.4c-1.5,0-2.6-1.3-2.6-2.7c0-1.5,1.3-2.6,2.7-2.6h0.1c1.3-0.1,2.5,1,2.5,2.3
	c0,0.1,0,0.2,0,0.3C147.9,400.3,146.9,401.3,145,401.4z"/>
<path id="path8_1_" d="M858,173c0.6-1.6,1.8-2.2,3.5-2.2c4.4,0.1,8.6,0,13,0c0.5,0,0.9,0.4,1,0.9l0,0.1c0.1,1.1-0.3,2.2-0.7,3.2
	c-0.9,2-1.6,3.5-2.6,6C849,233.8,826,286.7,802.9,339.6c-0.6,1.1-1.7,1.9-3,1.9c-4.4-0.1-8.9,0-13.6,0c-0.7,0-1.2-0.7-0.9-1.4
	c2.2-5.2,4.4-10.2,6.6-15.2c5.3-12.2,10.7-24.4,16-36.6c0.7-1.3,0.7-2.9,0-4.3c-16.5-37-33-74-49.5-111c-0.1-0.3-0.3-0.7-0.4-1
	c-0.2-0.6,0.2-1.3,0.9-1.3l14.5,0c1.2,0,1.4,0.8,1.7,1.6l27.5,61.5l13.8,30.9c0.4,0.8,1.5,0.8,1.8-0.1L858,173z"/>
<path id="path10_1_" d="M735.6,295.5c-7.9,0-15.1,0-22.3,0c-0.9,0-1.5-0.7-2-1.2l-59.8-53.7c-0.4-0.3-0.8-0.6-1.6-1.3v2.9
	c0,17,0,33.9,0.1,50.9c0,1.9-0.6,2.4-2.4,2.3c-4.3,0-8.5,0-12.4,0c-1.3,0-1.7-0.4-1.6-1.6c0-0.4,0-0.8,0-1.2
	c0-55.9,0-111.7-0.1-167.6c0-2.4,0.6-2.9,2.8-2.8c3.7,0,7.5,0,11.2,0c1.9-0.1,2.3,0.6,2.3,2.4c-0.1,25-0.1,50,0,75.1v20.8
	c2.4-2,4.4-3.7,6.4-5.4c16.4-14.3,32.8-28.5,49.2-42.8c1.1-1.1,2.7-1.7,4.3-1.6c7,0.1,14,0,21.5,0c-2.3,2-4.2,3.7-6.1,5.4
	c-20.1,17.4-40.2,34.7-60.4,52.1c-1.7,1.4-1.7,2.1-0.1,3.6c23,20.7,46.2,41.4,69.1,62.3L735.6,295.5z"/>
<path id="path12_1_" d="M528.5,298.5c-25.6,0-44.7-8.4-58.9-26.9c-9.9-12.9-13.3-27.5-11.9-43.6c2.4-28.5,24-54.4,57.4-59.3
	c18.2-2.7,35.4,0.3,51.4,9.6c7,4.2,12.9,9.9,17.3,16.9c0.8,1.2,0.8,1.7-0.6,2.5c-3.3,2-6.6,4-9.9,6.2c-1.3,0.9-1.8,0.5-2.6-0.6
	c-8.2-10.3-18.7-17.1-31.8-19.5c-22.9-4.2-45.4,2.6-58.4,23.8c-15.1,24.5-4.9,59.7,24.1,71.6c21.6,8.8,48.8,4.9,65.9-16.2
	c1-1.3,1.6-1.5,3-0.6c3.1,2.2,6.3,4.3,9.5,6.3c1.5,0.9,1.4,1.6,0.5,2.8c-9.2,12.6-21.6,20.4-36.6,24.3
	C540.8,297.6,534.6,298.5,528.5,298.5z"/>
<path id="path16_1_" d="M161.3,299.5c-13.8-0.4-25.6-5.2-35.2-15.5c-1.2-1.3-1.5-2.1-0.2-3.5c2.6-2.7,5-5.5,7.4-8.4
	c1-1.3,1.7-1.3,2.8-0.1c5.2,5.6,11.2,10.2,18.9,11.8c9.7,2,18.1-0.5,24.5-8.1c6.6-7.9,5.6-19.6-2.3-26.3c-0.1-0.1-0.2-0.1-0.2-0.2
	c-6-5-12.9-8.4-19.7-12c-7.2-3.9-14.3-8-19.5-14.3c-8.3-10-9.8-21.5-5.4-33.4c4.3-11.7,13.3-18.2,25.6-20.3
	c13.2-2.1,24.4,2.6,34.6,10.4c2.2,1.7,5.7,3.3,5.9,5.5c0.2,2.2-2.1,4.2-3.9,6.2c-1.4,1.6-4.1,3.9-5.8,4.1c-1.3,0.2-3.2-2.3-4.7-3.6
	c-5.4-4.3-11.2-7.4-18.1-8.3c-9.6-1.3-19.3,5.3-20.9,14.8c-1.1,6.5,1.9,11.8,6.5,16c4.7,4.3,10.2,7.3,15.8,10.3
	c6.2,3.2,12.2,6.9,17.9,11c20.8,15.1,17.8,45.3-3.2,58.1C175.8,297.7,168.6,299.6,161.3,299.5z"/>
<path id="path18_1_" d="M281.6,294c0,2-0.5,2.4-2.4,2.4c-3.8,0-7.8,0-11.7,0c-2,0-2.3-0.6-2.3-2.4c0.1-35.2,0-70.5,0.1-105.6
	c0-2.3-0.4-3-2.9-3c-5.7,0-11.3,0-17,0.1c-1.4,0-2.1-0.2-2-1.9c0-3.5,0-6.9,0-10.3c-0.1-1.6,0.5-1.8,1.9-1.8
	c5.9,0.1,11.8,0,17.7,0.1c1.8,0,2.4-0.4,2.4-2.3c-0.1-14,0-27.9-0.1-41.8c0-1.8,0.4-2.4,2.4-2.4c4,0,8.1,0,12.2,0c1.7,0,2,0.5,2,2
	c-0.1,14,0,27.9-0.1,41.8c0,2.3,0.7,2.7,2.8,2.6c6.9-0.2,13.9,0,20.8-0.1c1.6,0,2,0.4,2,2c0,3.3,0,6.6,0,10c0.1,1.6-0.5,2-2,2
	c-7.1-0.1-14.2,0-21.3-0.1c-1.8,0-2.2,0.2-2.2,2.2L281.6,294z"/>
<path id="path14" class="st14" d="M315,260.7c1.8,1.3,8,4.3,9.9,5.5c4.7,2.8,4.7,2.8,8.5,6.3c3.2,2.6,4.9,6.6,4.5,10.8
	c-0.4,2.8-1,5.6-1.8,8.4c-0.9,3.2-1.8,6.5-1.4,9.9c0.8,6.5,5.1,10.2,10.8,12.3c13.3,5.1,27,7.8,41.2,5.8c7.8-1,14.3-4.7,18.4-11.8
	c4.4-7.5,8.5-15.4,12-23.3c1.1-2.3,1.9-4.7,2.4-7.2c0.6-2.1-0.2-4.3-2-5.5c-2.1-1.6-4.1-3.5-5.9-5.5c2.5-0.2,4.5-0.2,6.6-0.6
	c3.8-0.7,5-2.5,4-6.3c-2.2-8.9-0.2-16.6,7.1-22.5c1.9-1.5,3.7-3,5.6-4.4c3-2.1,5.8-4.6,8.2-7.3c3.4-3.9,4.9-9.2,4-14.2
	c-1.1-6.8-4.7-12.4-8.6-17.9c-4.8-6.7-10.1-13.2-13.8-20.7c-5.3-10.9-5.8-21.4,2.4-31.3c6.5-7.9,7.4-16.9,3.9-26.4
	c-5.7-15.2-14.4-28.6-25-40.8c-1.9-2.1-4.2-4-6.8-5.2c-1.8-1-3.9-1.6-5.9-1.5c-3.2,0-6.3,1.3-8.5,3.7c-2.1,2.2-4,4.8-5.1,7.7
	c-2.6,5.6-4.4,11.6-5.5,17.7c-0.7,3.6-2.8,4.8-5.9,5.6c-4.2,1.1-8.2,0-12.2-1.3c-5.4-1.7-10.4-4.3-15.9-5.8
	c-6.7-1.9-13.4-1.9-18.4,3.6c-7.1,7.8-10.1,17-8.1,27.6c1.3,6.4,4.8,11.7,8.5,16.9c3.4,4.8,7.1,9.4,10,14.6
	c5.1,9.4,4.8,22.4-3.6,31.1c-2,2.1-4,4.1-6.1,6.1c-5.8,5.4-11.9,10.4-17.2,16.4c-8.6,9.7-10.8,22.4-6.3,33.1
	c2.4,5.7,6.6,10.4,11.8,13.7L315,260.7z M323.1,258.8c-6.7-3.6-11.2-7.2-15.6-12.3c-2.5-3-3.8-6.7-3.9-10.6c-0.3-2.1-0.3-4.3,0-6.4
	c0.5-5.9,3.6-10.4,7.4-14.7c5.8-6.6,12.9-11.9,19.1-18.1c5.1-4.9,9.3-10.3,10.9-17.3c2.5-10.1,0.4-19.5-5.2-28
	c-3.6-5.5-7.5-10.7-11.2-16.1c-3.2-4.7-5.5-9.9-5.1-15.8c0.4-5.5,2.3-10.7,5.6-15c2.8-3.7,6.6-4.4,10.9-3.6
	c6.2,1.3,11.8,4.3,17.8,6.2c4.5,1.4,9,2.8,13.8,1.7c7-1.5,11.4-3.6,12.7-11.4c1-6.2,3-12.1,5.9-17.6c1.3-2.4,2.6-4.8,5.5-5.5
	c0.4-0.2,0.7-0.2,1.1-0.2c0.5,0,0.9,0.1,1.4,0.2c4,0.9,6.5,3.8,8.9,6.7c5.4,6.3,9.7,13.4,14,20.5c3.2,5.5,6.3,11.2,8,17.3
	c0.3,1.1,0.6,2.3,0.6,3.4l0,0c0.4,2.1,0.4,4.3,0,6.3c0,2.1-1,4-2.1,5.7c-2.5,4.3-5.9,7.8-7.7,12.5c-0.9,2.5-1.5,5-1.8,7.6
	c-0.2,1.5-0.2,3.1-0.1,4.6c0.1,0.4,0.1,0.8,0.2,1.2c0.9,9.7,5.3,17.8,10.7,25.6c4.1,5.9,8.9,11.6,12.4,17.9
	c2.4,4.1,4.3,8.5,2.8,13.4c-1.1,3.9-4.2,6.3-7.2,8.7c-4.4,3.6-9.3,6.6-13,11.2c-3.1,3.8-4.9,8.4-5.4,13.3c-0.3,1.6-0.3,3.2,0,4.8
	l0.1,0.7c0.3,3.9,0.3,3.8-3.8,4.1c-2.6,0.2-5.2,0.6-6.4,3.3c-1.2,2.7-0.1,4.9,1.6,7c1.3,1.7,2.8,3.1,4.4,4.4c2,1.3,2.2,2.9,1.3,5.1
	c-2.2,5.4-4.9,10.5-7.5,15.7c-1.5,2.9-3.4,5.6-4.8,8.5c-3.3,6.6-9.2,9-16,9.7c-11.6,1.1-22.8-1.2-33.8-4.7c-0.6-0.2-1.2-0.5-1.7-0.7
	c-7-3.2-8.2-5.6-6.3-13.1c0.9-3.7,2.1-7.4,2.5-11.2c0.6-6.7-2.1-11.8-6.6-16c-1.3-1.3-2.8-2.3-4.4-3.2L323.1,258.8z"/>
<path id="path132" class="st14" d="M382,111.6c-1.7,0-2.5,0.6-2.7,2.3c-0.6,4.3-1.3,8.5-2,12.7c-1.6,9.6-3.1,19.2-4.6,28.7
	c-1.7,10.4-3.3,20.9-5,31.3c-1.8,11.6-3.7,23.2-5.6,34.8c-1.3,7.9-2.5,15.8-4,23.7c-0.2,1.5-0.3,2.5,1,3.2c4.7,0,9.3,0,13.9,0
	c3.9,0,7.7,0,11.5,0c0.9-0.6,1.3-1.4,1.3-2.5c1.8-11.3,3.6-22.6,5.4-33.9c1.7-10.5,3.4-21.1,5.1-31.6c1.7-10.4,3.3-20.9,5.1-31.3
	c1.8-11.5,3.6-23,5.5-34.6c0.4-2.2-0.1-2.9-2.4-2.9L382,111.6L382,111.6z"/>
<path id="path134" class="st14" d="M369.3,255.7c-3.1,0-6.1,0.6-8.9,1.7c-6.5,2.7-10.9,7.3-12.3,14.4c-0.3,1.4-0.3,2.9,0,4.4
	c0.1,0.6,0.2,1.3,0.3,1.8c2.3,8.2,9.3,13.5,18.9,14.5c1.1,0.1,2.2,0.1,3.3,0c10.4-1.1,17.6-7.1,19.2-16.4c0.2-1.4,0.1-2.6,0-3.8
	c-0.4-3.3-1.8-6.5-4-9C381.7,258.5,375.7,255.8,369.3,255.7z"/>
</svg>
